# xmcd
#
# Track frame offsets: 
#        150
#        39950
#        94630
#        127040
#        167305
#        222257
#        299642
#        318960
#
# Disc length: 4496 seconds
#
# Revision: 5
# Processed by: cddbd v1.5.2PL0 Copyright (c) Steve Scherf et al.
# Submitted via: ExactAudioCopy v1.0b3
#
DISCID=6b118e08
DTITLE=Bugs Henderson - Legendary Jams
DYEAR=1997
DGENRE=Blues
TTITLE0=Boogie On Down - With Freddie King
TTITLE1=Green Onions - With Roy Buchanan
TTITLE2=Talk To Your Daughter - With Johnnie Winter
TTITLE3=It's My Own Fault, Baby - With Johnny Winter
TTITLE4=Don't Want No Woman - With Ted Nugent
TTITLE5=Bluetex - With Ted Nugent
TTITLE6=Stranglehold - With Ted Nugent
TTITLE7=Audio Liner Notes
EXTD=YEAR: 1997
EXTT0=
EXTT1=
EXTT2=
EXTT3=
EXTT4=
EXTT5=
EXTT6=
EXTT7=
PLAYORDER=
